<?xml version="1.0" standalone="no"?><!DOCTYPE svg PUBLIC "-//W3C//DTD SVG 1.1//EN" "http://www.w3.org/Graphics/SVG/1.1/DTD/svg11.dtd"><svg t="1679490435884" class="icon" viewBox="0 0 1024 1024" version="1.1" xmlns="http://www.w3.org/2000/svg" p-id="1973" xmlns:xlink="http://www.w3.org/1999/xlink" width="200" height="200"><path d="M942.427421 234.839536a17.254917 17.254917 0 1 0-28.988261 18.715833 475.626037 475.626037 0 0 1 76.013661 258.559181c0 263.229511-214.145024 477.386038-477.386038 477.386038s-477.386038-214.156527-477.386038-477.386038 214.145024-477.386038 477.386038-477.386039a475.683553 475.683553 0 0 1 166.659492 29.908523 17.254917 17.254917 0 0 0 12.055436-32.335714 511.964892 511.964892 0 1 0 251.64571 202.538216z" fill="#9b0ee4" p-id="1974"></path><path d="M796.059711 128.365195a482.807533 482.807533 0 0 1 34.969965 28.562639 17.254917 17.254917 0 1 0 23.064073-25.663813c-11.963409-10.755565-24.571002-21.050999-37.47768-30.621726a17.256067 17.256067 0 1 0-20.556358 27.7229zM281.472072 360.409319c-61.956655 0-113.06572 28.344077-140.708097 71.941501 0.621177 2.484708 1.230851 5.049939 1.863531 7.695693 3.577519 14.954261 7.695693 32.151662 15.586942 46.46174 14.310078-13.86145 34.049703-26.975187 61.956655-29.597935 40.583565-3.807585 62.600839 1.29987 211.280708 83.467786-67.823327 23.489694-157.893994 32.381728-194.324876 23.489693-35.246044-8.592949-59.161359-21.166032-75.841112-35.073494-20.7059-14.436614-31.058851-36.752973-37.535196-57.999528a148.691372 148.691372 0 0 0-5.303011 39.594283c0 45.645007 5.222488 121.290564 114.768204 139.546266 93.038513 15.506419 194.324876-35.211534 239.969883-86.067527 43.033763 20.866946 186.353104 106.037217 275.181418 100.423618 69.583329-4.394252 107.48663-37.581209 128.744687-74.161634-1.610459-20.981979-7.143536-39.858858-15.391386-53.754818-36.10879 31.714538-74.012091 28.194534-118.564286 17.047858-56.159003-14.033999-104.334732-46.956381-147.379999-67.86934 108.867023-32.657806 209.865804-43.988535 270.775662 15.93204 11.583801 12.112952 22.672961 28.286561 28.574143 46.220171a300.94876 300.94876 0 0 0 8.443406-37.37415c10.893604-65.361626-35.211534-114.768205-95.201129-130.424167-75.438497-19.682109-177.369044 5.222488-256.925715 82.167915-119.990693-70.411565-208.680967-101.665971-269.970432-101.665971z" fill="#9b0ee4" p-id="1975"></path></svg>